<?xml version="1.0" encoding="iso-8859-1"?>
<!-- Generator: Adobe Illustrator 16.0.0, SVG Export Plug-In . SVG Version: 6.00 Build 0)  -->
<!DOCTYPE svg PUBLIC "-//W3C//DTD SVG 1.1//EN" "http://www.w3.org/Graphics/SVG/1.1/DTD/svg11.dtd">
<svg version="1.1" id="Capa_1" xmlns="http://www.w3.org/2000/svg" xmlns:xlink="http://www.w3.org/1999/xlink" x="0px" y="0px"
	 width="529.859px" height="529.859px" viewBox="0 0 529.859 529.859" style="enable-background:new 0 0 529.859 529.859;"
	 xml:space="preserve">
<g>
	<path d="M384.802,111c0,0,49.178-46.284,99.242,41.177C484.044,152.177,450.495,110.267,384.802,111z M130.288,109.486
		c0,0-49.195-46.285-99.239,41.177C31.049,150.669,64.587,108.753,130.288,109.486z M427.135,291.03
		c-9.682-7.974-14.989-17.992-13.701-24.583c-1.336-0.136-2.684-0.213-4.043-0.213c-22.821,0-41.316,18.495-41.316,41.316
		s18.495,41.322,41.316,41.322c22.81,0,41.305-18.501,41.305-41.322c0-2.388-0.242-4.711-0.627-6.98
		C443.733,300.907,435.05,297.555,427.135,291.03z M529.859,308.88c0,68.334-55.401,123.729-123.754,123.729
		S282.357,377.214,282.357,308.88c0-44.815,23.892-83.954,59.593-105.688c-56.117-10.453-108.253-8.293-153.919,0.085
		c35.621,21.734,59.48,60.822,59.48,105.602c0,68.334-55.414,123.729-123.76,123.729C55.393,432.61,0,377.214,0,308.88
		c0-13.606,2.299-26.676,6.348-38.935v-19.609c0-69.818,60.139-126.378,134.295-126.378h14.679h221.606h7.058
		c74.145,0,134.269,56.566,134.269,126.378l0.532,7.589C525.828,273.499,529.859,290.699,529.859,308.88z M123.75,226.975
		c-45.14,0-81.92,36.723-81.92,81.906c0,45.17,36.78,81.899,81.92,81.899c45.167,0,81.935-36.724,81.935-81.899
		C205.68,263.698,168.918,226.975,123.75,226.975z M488.028,308.88c0-45.183-36.753-81.906-81.923-81.906
		c-45.158,0-81.935,36.723-81.935,81.906c0,45.17,36.771,81.899,81.935,81.899C451.275,390.78,488.028,354.05,488.028,308.88z
		 M122.849,270.897c-1.374,0-2.716,0.083-4.049,0.207c1.277,6.597-4.025,16.609-13.704,24.589
		c-7.915,6.525-16.588,9.877-22.925,9.54c-0.387,2.27-0.635,4.599-0.635,6.975c0,22.828,18.495,41.322,41.313,41.322
		c22.819,0,41.316-18.494,41.316-41.322C164.166,289.404,145.668,270.897,122.849,270.897z"/>
</g>
<g>
</g>
<g>
</g>
<g>
</g>
<g>
</g>
<g>
</g>
<g>
</g>
<g>
</g>
<g>
</g>
<g>
</g>
<g>
</g>
<g>
</g>
<g>
</g>
<g>
</g>
<g>
</g>
<g>
</g>
</svg>
