<?xml version="1.0" encoding="iso-8859-1"?>
<!-- Generator: Adobe Illustrator 19.0.0, SVG Export Plug-In . SVG Version: 6.00 Build 0)  -->
<svg version="1.1" id="Layer_1" xmlns="http://www.w3.org/2000/svg" xmlns:xlink="http://www.w3.org/1999/xlink" x="0px" y="0px"
	 viewBox="0 0 512 512" style="enable-background:new 0 0 512 512;" xml:space="preserve">
<g>
	<g>
		<g>
			<path d="M230.4,324.267h136.533c4.71,0,8.533-3.823,8.533-8.533s-3.823-8.533-8.533-8.533H230.4c-4.71,0-8.533,3.823-8.533,8.533
				S225.69,324.267,230.4,324.267z"/>
			<path d="M349.867,256h-51.2c-4.71,0-8.533,3.823-8.533,8.533c0,4.71,3.823,8.533,8.533,8.533h51.2
				c4.71,0,8.533-3.823,8.533-8.533C358.4,259.823,354.577,256,349.867,256z"/>
			<path d="M128,153.6h85.333c4.71,0,8.533-3.823,8.533-8.533c0-4.71-3.823-8.533-8.533-8.533H128c-4.71,0-8.533,3.823-8.533,8.533
				C119.467,149.777,123.29,153.6,128,153.6z"/>
			<path d="M128,273.067h68.267c4.71,0,8.533-3.823,8.533-8.533c0-4.71-3.823-8.533-8.533-8.533H128
				c-4.71,0-8.533,3.823-8.533,8.533C119.467,269.244,123.29,273.067,128,273.067z"/>
			<path d="M469.333,119.467H384c-14.114,0-25.6-11.486-25.6-25.6V51.2c0-4.71-3.823-8.533-8.533-8.533
				c-4.71,0-8.533,3.823-8.533,8.533v42.667c0,23.526,19.14,42.667,42.667,42.667h76.8v332.8c0,14.114-11.486,25.6-25.6,25.6H76.8
				c-14.114,0-25.6-11.486-25.6-25.6V42.667c0-14.114,11.486-25.6,25.6-25.6h269.534L429.167,99.9c3.337,3.337,8.73,3.337,12.066,0
				c3.336-3.336,3.336-8.73,0-12.066L355.9,2.5c-1.596-1.604-3.772-2.5-6.033-2.5H76.8C53.274,0,34.133,19.14,34.133,42.667v426.667
				C34.133,492.86,53.274,512,76.8,512h358.4c23.526,0,42.667-19.14,42.667-42.667V128
				C477.867,123.29,474.044,119.467,469.333,119.467z"/>
			<path d="M128,221.867h153.6c4.71,0,8.533-3.823,8.533-8.533c0-4.71-3.823-8.533-8.533-8.533H128c-4.71,0-8.533,3.823-8.533,8.533
				C119.467,218.044,123.29,221.867,128,221.867z"/>
			<path d="M230.4,273.067h34.133c4.71,0,8.533-3.823,8.533-8.533c0-4.71-3.823-8.533-8.533-8.533H230.4
				c-4.71,0-8.533,3.823-8.533,8.533C221.867,269.244,225.69,273.067,230.4,273.067z"/>
			<path d="M264.533,426.667h85.333c4.71,0,8.533-3.823,8.533-8.533s-3.823-8.533-8.533-8.533h-85.333
				c-4.71,0-8.533,3.823-8.533,8.533S259.823,426.667,264.533,426.667z"/>
			<path d="M392.533,366.933c0-4.71-3.823-8.533-8.533-8.533h-51.2c-4.71,0-8.533,3.823-8.533,8.533s3.823,8.533,8.533,8.533H384
				C388.71,375.467,392.533,371.644,392.533,366.933z"/>
			<path d="M384,204.8h-68.267c-4.71,0-8.533,3.823-8.533,8.533c0,4.71,3.823,8.533,8.533,8.533H384c4.71,0,8.533-3.823,8.533-8.533
				C392.533,208.623,388.71,204.8,384,204.8z"/>
			<path d="M128,426.667h102.4c4.71,0,8.533-3.823,8.533-8.533s-3.823-8.533-8.533-8.533H128c-4.71,0-8.533,3.823-8.533,8.533
				S123.29,426.667,128,426.667z"/>
			<path d="M128,375.467h51.2c4.71,0,8.533-3.823,8.533-8.533s-3.823-8.533-8.533-8.533H128c-4.71,0-8.533,3.823-8.533,8.533
				S123.29,375.467,128,375.467z"/>
			<path d="M307.2,366.933c0-4.71-3.823-8.533-8.533-8.533h-85.333c-4.71,0-8.533,3.823-8.533,8.533s3.823,8.533,8.533,8.533h85.333
				C303.377,375.467,307.2,371.644,307.2,366.933z"/>
			<path d="M128,324.267h68.267c4.71,0,8.533-3.823,8.533-8.533s-3.823-8.533-8.533-8.533H128c-4.71,0-8.533,3.823-8.533,8.533
				S123.29,324.267,128,324.267z"/>
		</g>
	</g>
</g>
<g>
</g>
<g>
</g>
<g>
</g>
<g>
</g>
<g>
</g>
<g>
</g>
<g>
</g>
<g>
</g>
<g>
</g>
<g>
</g>
<g>
</g>
<g>
</g>
<g>
</g>
<g>
</g>
<g>
</g>
</svg>
