<?xml version="1.0" encoding="iso-8859-1"?>
<!-- Generator: Adobe Illustrator 19.0.0, SVG Export Plug-In . SVG Version: 6.00 Build 0)  -->
<svg version="1.1" id="Layer_1" xmlns="http://www.w3.org/2000/svg" xmlns:xlink="http://www.w3.org/1999/xlink" x="0px" y="0px"
	 viewBox="0 0 512 512" style="enable-background:new 0 0 512 512;" xml:space="preserve">
<g>
	<g>
		<g>
			<path d="M469.333,119.467H384c-14.114,0-25.6-11.486-25.6-25.6V51.2c0-4.71-3.814-8.533-8.533-8.533
				c-4.719,0-8.533,3.823-8.533,8.533v42.667c0,23.526,19.14,42.667,42.667,42.667h76.8v332.8c0,14.114-11.486,25.6-25.6,25.6H76.8
				c-14.114,0-25.6-11.486-25.6-25.6V42.667c0-14.114,11.486-25.6,25.6-25.6h269.534L429.167,99.9c3.337,3.337,8.73,3.337,12.066,0
				c3.336-3.328,3.336-8.73,0-12.066L355.9,2.5c-1.596-1.596-3.763-2.5-6.033-2.5H76.8C53.274,0,34.133,19.14,34.133,42.667v426.667
				C34.133,492.86,53.274,512,76.8,512h358.4c23.526,0,42.667-19.14,42.667-42.667V128
				C477.867,123.29,474.052,119.467,469.333,119.467z"/>
			<path d="M136.533,307.2c0,65.877,53.589,119.467,119.467,119.467S375.467,373.077,375.467,307.2S321.877,187.733,256,187.733
				S136.533,241.323,136.533,307.2z M256,204.8c56.465,0,102.4,45.935,102.4,102.4S312.465,409.6,256,409.6
				s-102.4-45.935-102.4-102.4S199.535,204.8,256,204.8z"/>
			<path d="M226.116,348.715c1.323,0.768,2.799,1.152,4.284,1.152c1.459,0,2.927-0.375,4.233-1.126l59.733-34.133
				c2.662-1.51,4.301-4.343,4.301-7.407s-1.638-5.888-4.301-7.407l-59.733-34.133c-2.637-1.519-5.888-1.502-8.516,0.026
				c-2.637,1.527-4.25,4.343-4.25,7.381v68.267C221.867,344.38,223.479,347.187,226.116,348.715z M238.933,287.77l33.997,19.43
				l-33.997,19.43V287.77z"/>
		</g>
	</g>
</g>
<g>
</g>
<g>
</g>
<g>
</g>
<g>
</g>
<g>
</g>
<g>
</g>
<g>
</g>
<g>
</g>
<g>
</g>
<g>
</g>
<g>
</g>
<g>
</g>
<g>
</g>
<g>
</g>
<g>
</g>
</svg>
